<svg xmlns="http://www.w3.org/2000/svg" viewBox="0 0 149.8 57.6"><defs><style>.cls-1{fill:none;stroke:#000;stroke-miterlimit:10;}</style></defs><title>Fichier 2</title><g id="Calque_2" data-name="Calque 2"><g id="Calque_1-2" data-name="Calque 1"><path d="M16.2,14.6V12.7h6.7v2.6h-.5Zm6.7,27.6v2.6H16.2V42.9l6.2-.7ZM20.7,27.6c0-4.9,0-9.9-.1-14.9h4.6c-.1,4.8-.1,9.8-.1,14.9v1.8c0,5.5,0,10.5.1,15.5H20.6c.1-4.8.1-9.8.1-14.9ZM36.2,12.7l2.2,2.4H22.9V12.7H40l.3,8.5H37.6ZM33.7,29.5H22.9V27.3H33.7Zm7.6,6.8L41,44.8H22.9V42.4H39.3l-2.2,2.4,1.5-8.5Zm-9.1-8.5.7-5.1h2.2V34.1H32.9l-.7-5.3Z"/><path d="M64.4,33.1c0,6,3.2,9.4,7.7,9.4a7.67,7.67,0,0,0,6.7-3.7l1.2.6c-1.3,4-4.4,6.2-8.9,6.2-6.6,0-10.7-4.6-10.7-12s5.3-12,11-12c4.3,0,7.8,2.6,8.4,6.2a2,2,0,0,1-2.2,1.8,2.43,2.43,0,0,1-2.5-2.2l-1.2-4.2L76.1,25a9.56,9.56,0,0,0-4.6-1.2C67.4,23.6,64.4,26.9,64.4,33.1Z"/><path d="M83.9,33.6c0-8,5.4-12.1,10.9-12.1s10.9,4.1,10.9,12.1-5.5,11.9-10.9,11.9S83.9,41.5,83.9,33.6Zm17.6,0c0-6.4-2.4-9.9-6.6-9.9s-6.6,3.5-6.6,9.9,2.4,9.7,6.6,9.7S101.5,40,101.5,33.6Z"/><path d="M113.5,44.8c.1-2.2.1-7.1.1-10.1V32.4c0-2.6,0-4.1-.1-6l-3.8-.4V24.3l6.5-2.9.7.5.6,5.6v7.2c0,3,0,7.9.1,10.1Zm7.5-1.6v1.7H110V43.2l5.3-1h1Zm10.9-12.8v4.4c0,3.1,0,7.9.1,10.1h-4.1c.1-2.2.1-7,.1-10.1v-4c0-4.5-1.2-5.9-4-5.9-2.4,0-4.2,1-6.9,3.3h-1V26h2.4l-2.1.9c2.3-3,6-5.4,9.3-5.4C129.9,21.5,131.9,24,131.9,30.4Zm-1.3,11.8,4.8,1v1.7h-11V43.2l5.3-1Zm15.7-12.4v4.9c0,3.1,0,7.9.1,10.1h-4.1c.1-2.2.1-7,.1-10.1V30.6c0-4.5-1.2-5.8-4.1-5.8-2.2,0-4.2.9-6.9,3.3h-1.2V26.4h2.6l-2.2.4a11.63,11.63,0,0,1,9.5-5.4C144,21.5,146.3,23.9,146.3,29.8ZM145,42.2l4.8,1v1.7h-11V43.2l5.3-1Z"/><circle class="cls-1" cx="28.8" cy="28.8" r="28.3"/></g></g></svg>